<svg width="38" height="64" viewBox="0 0 38 64" fill="none" xmlns="http://www.w3.org/2000/svg">
<path d="M35.8589 3.29362C36.2266 3.33831 36.578 3.47138 36.883 3.68146C37.1881 3.89154 37.4377 4.17238 37.6106 4.49995C37.7835 4.82753 37.8744 5.1921 37.8757 5.56249C37.877 5.93288 37.7885 6.29807 37.6179 6.62682L20.5189 39.5335C23.1816 39.005 25.9444 39.3774 28.3722 40.5918C30.8 41.8063 32.7548 43.7939 33.9288 46.2415C35.1028 48.6891 35.4292 51.4578 34.8566 54.1113C34.2841 56.7649 32.8451 59.1525 30.7662 60.8983C28.6874 62.6441 26.087 63.6487 23.3744 63.754C20.6618 63.8593 17.9913 63.0593 15.7834 61.4799C13.5755 59.9006 11.9557 57.6316 11.1792 55.0304C10.4026 52.4293 10.5134 49.6437 11.4941 47.1124C11.5373 46.9243 11.604 46.7425 11.6927 46.5711L24.972 21.0154L2.3186 18.2731C1.95092 18.2284 1.59952 18.0953 1.29447 17.8853C0.98942 17.6752 0.739785 17.3943 0.56692 17.0668C0.394053 16.7392 0.303102 16.3746 0.301832 16.0042C0.300566 15.6338 0.38902 15.2686 0.559638 14.9399L5.16609 6.07487C6.09869 4.27893 7.55731 2.81048 9.34694 1.86584C11.1366 0.921203 13.1719 0.54539 15.1809 0.788651L35.8589 3.29362Z" fill="url(#paint0_linear_10_72)"/>
<defs>
<linearGradient id="paint0_linear_10_72" x1="34.6046" y1="2.47772" x2="6.40591" y2="56.7454" gradientUnits="userSpaceOnUse">
<stop stop-color="#F72585" stop-opacity="0.15"/>
<stop offset="1" stop-color="#F9B145"/>
</linearGradient>
</defs>
</svg>
