<svg width="81" height="109" viewBox="0 0 81 109" fill="none" xmlns="http://www.w3.org/2000/svg">
<path d="M11.1104 4.59461C11.3905 3.73806 11.851 2.95153 12.4609 2.28803C13.0707 1.62453 13.8157 1.0995 14.6457 0.748322C15.4756 0.397145 16.3712 0.22799 17.2721 0.252261C18.1729 0.276532 19.0581 0.493664 19.8679 0.88902L61.4209 21.1607C62.6293 21.7497 63.6177 22.7094 64.2419 23.8999C64.8662 25.0904 65.0936 26.4492 64.8909 27.7781L57.1827 78.4602C60.311 76.7813 63.9144 76.2078 67.4093 76.8326C70.9042 77.4574 74.0857 79.244 76.4385 81.9028C78.7912 84.5617 80.1772 87.937 80.3721 91.4819C80.5669 95.0269 79.5591 98.5338 77.512 101.434C75.4648 104.335 72.4982 106.46 69.0929 107.464C65.6875 108.468 62.0429 108.293 58.7495 106.967C55.4561 105.641 52.7069 103.242 50.9473 100.158C49.1876 97.0744 48.5207 93.4871 49.0545 89.9771L55.8148 45.5275L14.2618 25.2558L9.21908 58.4123C12.3473 56.7334 15.9508 56.1599 19.4457 56.7847C22.9406 57.4096 26.1221 59.1961 28.4748 61.8549C30.8275 64.5138 32.2136 67.8891 32.4084 71.434C32.6033 74.979 31.5955 78.4859 29.5483 81.3865C27.5012 84.2872 24.5346 86.4117 21.1292 87.4157C17.7239 88.4198 14.0793 88.2447 10.7859 86.9188C7.49246 85.5928 4.74324 83.1937 2.98362 80.1101C1.22399 77.0266 0.557077 73.4392 1.0909 69.9293L10.873 5.61064C10.9261 5.26162 11.0094 4.92358 11.1104 4.59461Z" fill="url(#paint0_linear_10_67)"/>
<defs>
<linearGradient id="paint0_linear_10_67" x1="52.3323" y1="5.53555" x2="37.3362" y2="104.136" gradientUnits="userSpaceOnUse">
<stop stop-color="#F9B145"/>
<stop offset="1" stop-color="#F72585" stop-opacity="0.18"/>
</linearGradient>
</defs>
</svg>
